<?xml version="1.0" encoding="UTF-8"?>
<svg width="1000" height="1000" 
viewBox="0 0 1000 1000" 
preserveAspectRatio="xMinYMin"
xmlns:xlink="http://www.w3.org/1999/xlink"
xmlns="http://www.w3.org/2000/svg">
<!-- Generated by PQINA - https://pqina.nl/ -->
<title></title>
<g transform="rotate(NaN 500 500) translate(500 500) scale(NaN) translate(-500 -500) translate(0 0)">
<g transform="scale(1 1) translate(0 0)">
<svg version="1.1" id="Layer_1" xmlns="http://www.w3.org/2000/svg" xmlns:xlink="http://www.w3.org/1999/xlink" x="0px" y="0px" viewBox="0 0 1000 1000" style="overflow: visible;" xml:space="preserve" width="1000" height="1000">
<style type="text/css">
	.st0{fill:#FBBC35;}
	.st1{fill:none;stroke:#000000;stroke-width:18.5902;stroke-miterlimit:10;}
	.st2{stroke:#000000;stroke-width:0.4853;stroke-miterlimit:10;}
	.st3{fill:#549933;}
</style>
<image style="display:none;overflow:visible;" width="2000" height="2000" xlink:href="E:\illustrator 112\mt1.png" transform="matrix(9.448819e-02 0 0 9.448819e-02 -3283.1763 569.154)">
</image>
<path class="st0" d="M177.5,136.3L484,50.7c12.6-3.5,25.9-3.5,38.5,0l303.3,85.5c30.7,8.7,51.9,36.7,51.9,68.6v293.3
	c0,42.5-8.7,84.5-25.6,123.5c-21.6,49.9-55.3,110.5-108,170.2C670,875.7,588.9,923.2,533.1,949.1c-18.9,8.8-40.7,8.9-59.7,0.2
	c-50.1-23.1-115.3-60.7-178.6-121.7c-73.1-70.4-116.9-146.2-143.2-205.9c-17.3-39.4-26.2-81.9-26.2-124.9V205
	C125.4,173,146.7,144.9,177.5,136.3z"></path>
<path class="st1" d="M208,170.7l277.7-77.6c11.4-3.2,23.5-3.2,34.9,0l274.8,77.4c27.8,7.8,47,33.2,47,62.1v265.7
	c0,38.5-7.9,76.6-23.2,111.9c-19.6,45.2-50.1,100.1-97.9,154.2c-67.1,76-140.6,119.1-191.1,142.6c-17.1,8-36.9,8.1-54.1,0.2
	c-45.4-20.9-104.4-55-161.8-110.3c-66.2-63.8-105.9-132.5-129.7-186.5c-15.7-35.7-23.7-74.2-23.7-113.2V232.9
	C160.8,203.9,180.1,178.5,208,170.7z"></path>
<g>
	<path class="st2" d="M539.5,498l61.2-19.4c1-0.3,1.2-1.7,0.2-2.2l-28.1-15.9c-0.7-0.4-0.8-1.4-0.3-1.9l37.1-36.7
		c0.5-0.5,1.2-0.5,1.7,0l36.6,32.1c0.4,0.4,1.1,0.4,1.5,0.1l43-31c0.6-0.4,0.7-1.3,0.1-1.9l-42.1-41.5c-0.5-0.5-0.5-1.2,0-1.7
		l36.3-38.3c0.5-0.5,1.3-0.5,1.8,0l40.4,43.5c0.5,0.5,1.3,0.5,1.8,0l33.2-36.8c0.4-0.4,0.4-1.1,0.1-1.6l-38.2-50.9
		c-0.3-0.4-0.3-1.1,0-1.5l32.1-41.2c0.5-0.7,1.6-0.6,2,0.1l30.2,51c0.5,0.9,1.8,0.8,2.2-0.2c6.1-14.7,12.1-29.5,18.2-44.2
		c0.8-1.9,1.4-3.8,1.8-5.6c5.3-22.7-12.7-44.5-20.2-52.6c-0.5-0.6-1.4-0.5-1.9,0.1c-10.4,14.2-19.7,33.9-30,48.2
		c-0.5,0.8-1.7,0.6-2.1-0.2l-25.2-53.4c-0.4-0.9-1.8-0.9-2.2,0l-28.8,60.1c-0.2,0.4-0.2,0.8,0.1,1.2l22.7,36.7
		c0.3,0.4,0.2,1-0.1,1.4l-35.9,43.5c-0.5,0.7-1.6,0.6-2-0.2l-16.1-27.4c-0.5-0.8-1.5-0.8-2.1-0.1l-36.4,52.1
		c-0.4,0.5-0.3,1.2,0.2,1.6l16.2,14.5c0.5,0.5,0.5,1.2,0.1,1.7l-37,40.1c-0.5,0.5-1.3,0.5-1.8,0L596.9,407c-0.5-0.5-1.3-0.5-1.8,0.1
		l-36.4,43.7c-0.5,0.6-0.3,1.5,0.3,1.8l11,6.4c0.7,0.4,0.8,1.4,0.2,1.9l-33.4,32.7C534.9,495.6,536.9,498.9,539.5,498z"></path>
	<path class="st2" d="M463.6,498l-61.2-19.4c-1-0.3-1.2-1.7-0.2-2.2l28.1-15.9c0.7-0.4,0.8-1.4,0.3-1.9l-37.1-36.7
		c-0.5-0.5-1.2-0.5-1.7,0l-36.6,32.1c-0.4,0.4-1.1,0.4-1.5,0.1l-43-31c-0.6-0.4-0.7-1.3-0.1-1.9l42.1-41.5c0.5-0.5,0.5-1.2,0-1.7
		l-36.3-38.3c-0.5-0.5-1.3-0.5-1.8,0l-40.4,43.5c-0.5,0.5-1.3,0.5-1.8,0l-33.2-36.8c-0.4-0.4-0.4-1.1-0.1-1.6l38.2-50.9
		c0.3-0.4,0.3-1.1,0-1.5l-32.1-41.2c-0.5-0.7-1.6-0.6-2,0.1l-30.2,51c-0.5,0.9-1.8,0.8-2.2-0.2c-6.1-14.7-12.1-29.5-18.2-44.2
		c-0.8-1.9-1.4-3.8-1.8-5.6c-5.3-22.7,12.7-44.5,20.2-52.6c0.5-0.6,1.4-0.5,1.9,0.1c10.4,14.2,19.7,33.9,30,48.2
		c0.5,0.8,1.7,0.6,2.1-0.2l25.2-53.4c0.4-0.9,1.8-0.9,2.2,0l28.8,60.1c0.2,0.4,0.2,0.8-0.1,1.2l-22.7,36.7c-0.3,0.4-0.2,1,0.1,1.4
		l35.9,43.5c0.5,0.7,1.6,0.6,2-0.2l16.1-27.4c0.5-0.8,1.5-0.8,2.1-0.1l36.4,52.1c0.4,0.5,0.3,1.2-0.2,1.6l-16.2,14.5
		c-0.5,0.5-0.5,1.2-0.1,1.7l37,40.1c0.5,0.5,1.3,0.5,1.8,0l12.9-12.9c0.5-0.5,1.3-0.5,1.8,0.1l36.4,43.7c0.5,0.6,0.3,1.5-0.3,1.8
		l-11,6.4c-0.7,0.4-0.8,1.4-0.2,1.9l33.4,32.7C468.2,495.5,466.2,498.8,463.6,498z"></path>
</g>
<path d="M502.1,119.4c53.4,1.5,100.5,28.6,121.8,72.1c0.3,0.7,0.7,1.4,1,2.1c14.2,30.6,11.6,66.6-5.9,95.3
	c-35.5,57.9-71.1,115.9-106.6,173.8c-4.7,7.7-15.7,7.8-20.5,0L384.3,289c-17.7-28.6-20.3-64.6-6.3-95.2c0.7-1.6,1.5-3.2,2.3-4.7
	C402.3,146.1,449.3,119.9,502.1,119.4z"></path>
<g>
	<path class="st3" d="M492.1,277.2h-74.6c-0.2,0-0.4,0.2-0.2,0.4l36.8,61.6c0.1,0.3,0.5,0.1,0.5-0.2v-28.4c0-0.2,0.1-0.3,0.3-0.3
		H476c0.1,0,0.2,0.1,0.2,0.1l24.5,39.9c0.1,0.2,0.4,0.2,0.5,0l24.5-39.9c0.1-0.1,0.1-0.1,0.2-0.1h21.5c0.2,0,0.3,0.1,0.3,0.3v28.4
		c0,0.3,0.4,0.4,0.5,0.2l37.7-61.5c0.1-0.2,0-0.4-0.2-0.4h-76.3c-0.1,0-0.2,0-0.2,0.1l-7.4,10.8c-0.1,0.2-0.3,0.2-0.4,0l-9-10.8
		C492.3,277.3,492.2,277.2,492.1,277.2z"></path>
	<path class="st3" d="M500.5,420.6l-30.2-47.8c-0.1-0.2-0.2-0.4-0.2-0.7v-35.8c0-0.7,0.6-1.3,1.2-1.3h4.7c0.4,0,0.8,0.2,1.1,0.6
		l23.4,41.3c0.5,0.8,1.7,0.8,2.1,0l23.4-41.3c0.2-0.4,0.6-0.6,1.1-0.6h4.7c0.7,0,1.2,0.6,1.2,1.3v35.8c0,0.2-0.1,0.5-0.2,0.7
		l-30.2,47.7C502.1,421.3,501,421.3,500.5,420.6z"></path>
</g>
<g>
	<rect x="399.3" y="202.8" class="st0" width="40.9" height="40.9"></rect>
	<rect x="481.1" y="202.8" class="st0" width="40.9" height="40.9"></rect>
	<rect x="440.2" y="161.9" class="st0" width="40.9" height="40.9"></rect>
	<rect x="562.9" y="202.8" class="st0" width="40.9" height="40.9"></rect>
	<rect x="522" y="161.9" class="st0" width="40.9" height="40.9"></rect>
</g>
<path class="st3" d="M561,842.1H442.1c-7.1,0-12.4-5-11-10.3l9.7-38.2c1-4.1,5.7-7,11-7h99.4c5.4,0,10,2.9,11,7l9.7,38.2
	C573.4,837.2,568.1,842.1,561,842.1z"></path>
<g>
	<path d="M305.3,594.4h-20.5l5.6-29.1c0.1-0.4,0.1-0.6,0.1-0.7c0-0.6-0.4-0.9-1.3-0.9h-9.5l-6,30.7h-19.9l6-30.7h-11.1l-5.9,30.7
		h-20.5l8.6-44.8h64.6c5.8,0,9.9,0.6,12.4,1.9c2.5,1.3,3.7,3.8,3.7,7.5c0,1.4-0.2,3.1-0.5,5L305.3,594.4z"></path>
	<path d="M371.4,594.4h-37.8c-6.9,0-11.6-1-14.1-2.9c-2.5-1.9-3.2-5.8-2.1-11.6l3.1-16.3c1.2-5.9,3.1-9.8,5.8-11.7s7.4-2.8,14-2.8
		h22.1c6.9,0,11.6,1,14.1,2.9c2.5,1.9,3.1,5.8,2,11.5l-2.6,13h-38l-0.6,3.3c-0.1,0.6-0.1,1,0,1.2c0.1,0.2,0.6,0.3,1.2,0.3h35.3
		L371.4,594.4z M358.5,567.4l0.8-4.3c0.1-0.7,0.1-1.1,0-1.3c-0.1-0.2-0.6-0.3-1.2-0.3h-15.6c-0.7,0-1.1,0.1-1.3,0.3
		c-0.2,0.2-0.4,0.6-0.5,1.3l-0.8,4.3H358.5z"></path>
	<path d="M420.9,611.9h-16.6l2.6-13.3h10.9c1.1,0,1.8-0.5,2.1-1.6l0.8-4.4h-19.4c-6,0-10.3-0.6-12.9-1.9c-2.6-1.3-3.9-3.8-3.9-7.7
		c0-1.4,0.2-3,0.5-4.9l2.8-14.3c1.1-5.8,3.1-9.6,6-11.5c2.9-1.8,7.7-2.8,14.5-2.8h41.9l-9.3,48c-1.1,5.8-3.1,9.7-5.8,11.5
		C432.2,611,427.5,611.9,420.9,611.9z M423.4,578.5l2.9-14.9h-16.5c-0.7,0-1.1,0.1-1.3,0.3c-0.2,0.2-0.4,0.6-0.5,1.3l-2.3,11.7
		c-0.1,0.3-0.1,0.5-0.1,0.6c0,0.6,0.5,0.9,1.4,0.9H423.4z"></path>
	<path d="M515.1,594.4H470c-5.9,0-10.2-0.7-12.8-2c-2.6-1.3-3.9-3.9-3.9-7.7c0-1.4,0.2-3,0.5-4.7l3.1-15.9c1.1-5.8,3.1-9.7,6-11.6
		c2.8-1.9,7.6-2.8,14.4-2.8h40l-5.8,29.9h6.5L515.1,594.4z M491,579.4l3-15.7h-14.9c-0.7,0-1.1,0.1-1.3,0.3
		c-0.2,0.2-0.4,0.6-0.5,1.3l-2.5,12.5c-0.1,0.4-0.1,0.6-0.1,0.7c0,0.6,0.5,0.9,1.4,0.9H491z"></path>
	<path d="M597,594.4h-16.8c-5.9,0-10.1-0.7-12.7-2.1c-2.5-1.4-3.8-4-3.8-7.8c0-1.7,0.2-3.5,0.6-5.5l3.1-16.1h-6.5l2.6-13.2h6.5
		l2.3-12.2h21l-2.3,12.2h12.8l-2.6,13.2h-12.8l-3,15c-0.1,0.3-0.1,0.5-0.1,0.7c0,0.6,0.4,0.9,1.3,0.9h13.1L597,594.4z"></path>
	<path d="M667.8,594.4h-45.1c-5.9,0-10.2-0.7-12.8-2c-2.6-1.3-3.9-3.9-3.9-7.7c0-1.4,0.2-3,0.5-4.7l3.1-15.9c1.1-5.8,3.1-9.7,6-11.6
		c2.8-1.9,7.6-2.8,14.4-2.8h40l-5.8,29.9h6.5L667.8,594.4z M643.7,579.4l3-15.7h-14.9c-0.7,0-1.1,0.1-1.3,0.3
		c-0.2,0.2-0.4,0.6-0.5,1.3l-2.5,12.5c-0.1,0.4-0.1,0.6-0.1,0.7c0,0.6,0.5,0.9,1.4,0.9H643.7z"></path>
	<path d="M742.2,594.4h-25l-7.2-10.8l-11.5,10.8h-27.6l27.1-23l-17.3-21.8h24.5l6.6,9.8l10-9.8h27.7l-25.7,21.7L742.2,594.4z"></path>
	<path d="M769.6,594.4h-21.3l8.7-44.8h21.3L769.6,594.4z M779.3,544.4H758l2.4-12.4h21.3L779.3,544.4z"></path>
</g>
<g>
	<path d="M322.9,726.6h-33.4l13.6-71c0.2-0.5,0.2-0.8,0.2-1.1c0-0.9-0.8-1.4-2.4-1.4h-19.8l4.8-24.3H312c9.5,0,16.3,1.1,20.2,3.3
		c3.9,2.2,5.9,6.3,5.9,12.4c0,2.4-0.4,5.6-1.3,9.5L322.9,726.6z"></path>
	<path d="M451.5,726.6H339.8l7.1-36.9c1.9-9.7,5-16.2,9.5-19.3c4.4-3.2,12.3-4.8,23.5-4.8h48.5c1.8,0,2.8-0.7,3.1-2.2l1.7-8.7
		c0.1-0.5,0.1-0.8,0.1-1c0-1-0.7-1.5-2.2-1.5h-73.9l4.5-23.3h79.1c9.5,0,16.3,1.1,20.3,3.2c4,2.1,6,5.9,6,11.4
		c0,2.1-0.3,4.5-0.8,7.3l-2.9,14.7c-1.8,9-4.9,14.9-9.3,17.8c-4.4,2.9-12.2,4.3-23.2,4.3h-48.5c-1.9,0-2.9,0.7-3.2,2.2l-2.4,12.9
		h79.5L451.5,726.6z"></path>
	<path d="M582.9,726.6H471.1l7.1-36.9c1.9-9.7,5-16.2,9.5-19.3c4.4-3.2,12.3-4.8,23.5-4.8h48.5c1.8,0,2.8-0.7,3.1-2.2l1.7-8.7
		c0.1-0.5,0.1-0.8,0.1-1c0-1-0.8-1.5-2.2-1.5h-73.9l4.5-23.3h79.1c9.5,0,16.3,1.1,20.3,3.2c4,2.1,6,5.9,6,11.4
		c0,2.1-0.3,4.5-0.8,7.3l-2.9,14.7c-1.8,9-4.9,14.9-9.3,17.8c-4.4,2.9-12.2,4.3-23.2,4.3h-48.5c-1.9,0-2.9,0.7-3.2,2.2l-2.4,12.9
		h79.5L582.9,726.6z"></path>
	<path d="M714.2,726.6H602.5l7.1-36.9c1.9-9.7,5-16.2,9.5-19.3c4.4-3.2,12.3-4.8,23.5-4.8h48.5c1.8,0,2.8-0.7,3.1-2.2l1.7-8.7
		c0.1-0.5,0.1-0.8,0.1-1c0-1-0.7-1.5-2.2-1.5h-73.9l4.5-23.3h79.1c9.5,0,16.3,1.1,20.3,3.2c4,2.1,6,5.9,6,11.4
		c0,2.1-0.3,4.5-0.8,7.3l-2.9,14.7c-1.8,9-4.9,14.9-9.3,17.8c-4.4,2.9-12.2,4.3-23.2,4.3H645c-1.9,0-2.9,0.7-3.2,2.2l-2.4,12.9h79.5
		L714.2,726.6z"></path>
</g>
<g>
	<path d="M467.7,829.7h-8.2v-21.9h-9.8v-7.2h27.7v7.2h-9.8V829.7z"></path>
	<path d="M508.5,829.7h-8.9l-1.9-4.5h-12.8l-1.9,4.5h-8.8l12.9-29.2h8.5L508.5,829.7z M491.3,809.8l-3.9,9h7.9L491.3,809.8
		L491.3,809.8z"></path>
	<path d="M540.9,829.7h-10.2l-6-8.2l-5.7,8.2h-9.9l10.6-14.8l-10.1-14.4h10.2l5.3,8l5.3-8h9.9l-10.2,14.3L540.9,829.7z"></path>
	<path d="M551.6,829.7h-8.2v-29.2h8.2V829.7z"></path>
</g>
</svg>
</g>
</g>
</svg>